<?xml version="1.0" standalone="no"?>
<!DOCTYPE svg PUBLIC "-//W3C//DTD SVG 20010904//EN"
 "http://www.w3.org/TR/2001/REC-SVG-20010904/DTD/svg10.dtd">
<svg version="1.0" xmlns="http://www.w3.org/2000/svg"
 width="921.000000pt" height="362.000000pt" viewBox="0 0 921.000000 362.000000"
 preserveAspectRatio="xMidYMid meet">
<metadata>
Created by potrace 1.16, written by Peter Selinger 2001-2019
</metadata>
<g transform="translate(0.000000,362.000000) scale(0.100000,-0.100000)"
fill="#000000" stroke="none">
<path d="M5859 3132 c-135 -86 -390 -449 -583 -830 -157 -310 -245 -528 -429
-1057 -156 -448 -217 -653 -276 -925 -47 -219 -47 -220 -19 -220 22 0 25 6 36
73 19 113 97 426 148 592 69 224 265 782 356 1012 89 225 258 576 363 753 173
294 369 540 461 582 23 11 28 10 41 -7 12 -16 14 -42 9 -130 -5 -114 -25 -203
-105 -481 -106 -369 -141 -533 -141 -656 0 -111 21 -148 86 -148 38 0 74 23
130 82 126 134 282 402 489 839 63 131 121 249 130 261 16 22 17 17 12 -92 -3
-63 -28 -275 -56 -470 -27 -195 -57 -425 -66 -511 -28 -275 -21 -1066 9 -1096
3 -3 13 -2 24 1 17 6 18 11 8 64 -15 83 -14 877 2 1017 7 61 35 272 62 470 87
640 89 695 25 695 -34 0 -71 -59 -164 -258 -253 -542 -465 -887 -585 -949 -26
-13 -30 -13 -45 1 -13 13 -16 35 -15 104 2 99 30 232 103 497 27 99 65 237 84
306 67 242 84 422 44 483 -24 36 -78 36 -138 -2z"/>
<path d="M1255 3101 c-324 -67 -657 -259 -916 -528 -132 -138 -225 -263 -282
-382 -36 -75 -41 -94 -45 -172 -4 -81 -2 -94 23 -144 27 -56 87 -111 161 -148
42 -21 182 -56 474 -117 385 -80 700 -166 700 -190 0 -5 -35 -33 -77 -63 -135
-95 -267 -212 -427 -380 -177 -185 -224 -243 -271 -342 -46 -95 -65 -174 -65
-270 0 -144 61 -218 206 -251 344 -76 908 265 1097 663 29 62 32 76 32 168 0
94 -2 104 -34 168 -53 105 -160 205 -314 292 l-39 23 144 87 c122 75 415 235
430 235 2 0 3 -13 0 -29 -6 -43 13 -71 50 -71 25 0 45 14 109 79 l79 79 0 -49
c0 -61 24 -89 76 -89 28 0 45 9 87 48 91 83 84 80 169 72 45 -4 87 -14 102
-24 l27 -17 -63 -42 c-80 -53 -108 -95 -108 -157 0 -57 21 -80 74 -80 109 0
184 93 174 216 l-5 53 46 20 46 20 6 -57 c7 -69 23 -102 49 -102 32 0 56 32
110 145 28 58 54 105 59 105 4 0 16 -20 25 -45 25 -64 56 -85 125 -85 31 0 81
7 111 15 30 8 55 15 56 15 0 0 -2 -26 -4 -58 -8 -110 45 -109 156 3 l72 74 0
-52 c1 -167 72 -309 177 -354 36 -15 173 -18 173 -4 0 31 -13 41 -49 35 -92
-15 -192 53 -225 152 -21 65 -38 200 -30 246 14 91 -28 105 -79 26 -19 -29
-60 -78 -93 -108 -47 -44 -59 -51 -62 -37 -2 9 6 37 17 60 16 34 32 48 75 70
86 41 114 107 47 107 -21 0 -44 -14 -83 -49 -41 -38 -69 -53 -123 -69 -156
-47 -181 -41 -222 44 -27 58 -55 75 -92 55 -12 -7 -44 -61 -75 -126 -31 -63
-58 -115 -62 -115 -11 0 5 359 20 445 31 175 79 326 158 496 32 70 44 86 58
82 15 -4 21 4 31 37 12 38 11 44 -6 56 -10 8 -24 14 -31 14 -16 0 -99 -165
-152 -300 -68 -172 -122 -423 -122 -565 0 -92 -4 -98 -76 -132 -54 -25 -66
-28 -76 -16 -21 26 -66 43 -128 50 l-60 6 46 49 c37 40 45 54 42 81 -2 27 -8
33 -31 35 -38 5 -89 -48 -113 -117 -16 -44 -32 -65 -92 -117 -40 -35 -77 -64
-82 -64 -19 0 -30 41 -30 113 0 59 -3 76 -16 81 -9 3 -20 4 -25 0 -5 -3 -9 2
-9 11 0 48 -87 20 -157 -52 -40 -41 -79 -66 -165 -107 -127 -61 -322 -171
-445 -251 l-82 -54 -69 30 c-89 37 -354 105 -653 168 -336 71 -443 98 -491
122 -173 87 -208 218 -112 414 65 133 246 352 389 473 290 244 662 411 921
414 114 1 160 -38 158 -136 -2 -58 -35 -148 -85 -231 -40 -66 -52 -65 -15 1
24 43 25 49 11 63 -15 15 -18 14 -35 -9 -53 -67 -76 -201 -38 -208 38 -7 140
140 184 265 45 128 29 219 -48 276 -39 29 -173 33 -293 8z m1525 -1472 c-21
-77 -111 -142 -147 -106 -32 32 8 98 91 152 49 31 51 32 59 13 4 -11 3 -38 -3
-59z m-1195 -323 c184 -122 273 -293 230 -442 -31 -111 -161 -295 -278 -396
-379 -326 -845 -421 -948 -193 -47 102 8 306 123 460 65 87 350 378 455 463
49 41 130 102 178 137 l89 63 46 -26 c25 -14 72 -44 105 -66z"/>
<path d="M7982 2858 c-29 -37 -106 -211 -150 -343 -86 -253 -122 -419 -122
-570 l-1 -80 -61 -28 c-54 -24 -63 -26 -77 -13 -30 27 -89 46 -142 46 l-52 0
46 49 c70 75 75 121 13 121 -46 0 -100 -61 -115 -131 -7 -29 -142 -159 -166
-159 -20 0 -37 44 -34 89 8 121 -17 135 -79 44 -48 -71 -144 -163 -150 -144
-15 44 89 181 137 181 11 0 25 9 31 19 8 16 6 21 -10 26 -34 11 -86 -14 -130
-61 -50 -55 -70 -99 -70 -157 0 -92 54 -86 158 19 l72 74 0 -46 c0 -34 6 -51
25 -69 41 -42 85 -29 167 53 55 54 60 56 105 54 66 -3 140 -21 153 -37 8 -10
-1 -20 -38 -43 -87 -57 -122 -107 -122 -177 0 -39 37 -75 77 -75 30 0 91 25
116 48 35 31 58 91 58 148 0 29 -2 58 -5 63 -4 5 17 21 46 34 l53 26 6 -34 c3
-18 13 -45 23 -59 14 -22 24 -26 64 -26 45 0 95 21 174 74 27 18 28 18 34 0
16 -50 25 -64 50 -70 68 -17 124 65 124 178 0 50 -4 70 -14 74 -8 3 -16 14
-19 25 -7 25 -58 26 -80 1 -9 -10 -27 -43 -41 -74 -22 -49 -34 -62 -102 -107
-87 -57 -129 -70 -151 -48 -21 20 -31 161 -21 277 14 163 98 458 190 667 27
64 34 72 53 67 19 -5 24 0 33 38 10 37 9 45 -5 56 -9 6 -22 12 -29 12 -6 0
-16 -6 -22 -12z m-402 -1159 c0 -89 -116 -187 -159 -135 -25 30 20 97 98 147
50 32 61 30 61 -12z"/>
<path d="M8519 2043 c-124 -263 -159 -326 -176 -310 -4 5 -8 65 -8 133 0 123
0 124 -23 124 l-24 0 4 -139 c3 -120 6 -142 22 -160 48 -53 80 -15 203 237 57
118 102 221 99 228 -15 38 -39 9 -97 -113z"/>
<path d="M8676 1980 c-42 -37 -66 -103 -66 -181 0 -127 90 -116 175 23 l41 65
2 -71 c6 -211 81 -338 216 -366 70 -14 126 -5 126 21 0 16 -8 19 -57 19 -155
1 -229 107 -240 345 -6 114 -14 140 -44 132 -11 -3 -24 4 -34 19 -23 35 -74
33 -119 -6z m107 -40 c13 0 9 -13 -20 -62 -86 -151 -141 -156 -98 -11 19 64
71 115 91 89 6 -9 18 -16 27 -16z"/>
</g>
</svg>
